<svg width="18" height="18" viewBox="0 0 18 18" fill="none" xmlns="http://www.w3.org/2000/svg">
<path fill-rule="evenodd" clip-rule="evenodd" d="M4.3525 2.7001C3.91425 2.7001 3.49396 2.87419 3.18407 3.18407C2.87419 3.49396 2.7001 3.91425 2.7001 4.3525V10.9477C2.7001 11.7577 3.2815 12.43 4.0501 12.5722V7.0525C4.0501 6.65822 4.12776 6.2678 4.27864 5.90353C4.42953 5.53926 4.65068 5.20828 4.92948 4.92948C5.49254 4.36642 6.25621 4.0501 7.0525 4.0501H12.5722C12.5014 3.67091 12.3003 3.32839 12.0036 3.08185C11.707 2.83532 11.3334 2.70027 10.9477 2.7001H4.3525ZM1.3501 10.9477C1.35042 11.6938 1.62846 12.4131 2.13007 12.9655C2.63169 13.5178 3.32095 13.8637 4.0636 13.9357C4.1354 14.6787 4.4813 15.3683 5.03386 15.8701C5.58643 16.3719 6.30607 16.65 7.0525 16.6501H10.6237C11.2807 16.6501 11.9107 16.3891 12.3742 15.9256L15.9256 12.3742C16.1554 12.1443 16.3377 11.8714 16.462 11.571C16.5863 11.2707 16.6502 10.9488 16.6501 10.6237V7.0525C16.6498 6.30637 16.3717 5.58707 15.8701 5.03471C15.3685 4.48236 14.6792 4.13649 13.9366 4.0645C13.8648 3.32153 13.5189 2.63193 12.9663 2.13011C12.4138 1.62829 11.6941 1.35022 10.9477 1.3501H4.3525C3.95822 1.3501 3.5678 1.42776 3.20353 1.57864C2.83926 1.72953 2.50828 1.95068 2.22948 2.22948C1.66642 2.79254 1.3501 3.55621 1.3501 4.3525V10.9477ZM7.0525 5.4001C6.61425 5.4001 6.19396 5.57419 5.88407 5.88407C5.57419 6.19396 5.4001 6.61425 5.4001 7.0525V13.6477C5.4001 14.5603 6.1399 15.3001 7.0525 15.3001H10.3501V11.7001C10.3501 11.3421 10.4923 10.9987 10.7455 10.7455C10.9987 10.4923 11.3421 10.3501 11.7001 10.3501H15.3001V7.0525C15.3001 6.61425 15.126 6.19396 14.8161 5.88407C14.5062 5.57419 14.0859 5.4001 13.6477 5.4001H7.0525ZM14.6899 11.7001H11.7001V14.6899L14.6899 11.7001Z" fill="white" fill-opacity="0.7"/>
</svg>
