<svg width="40" height="40" viewBox="0 0 40 40" fill="none" xmlns="http://www.w3.org/2000/svg">
<g filter="url(#filter0_d_361_3243)">
<rect x="3" y="2" width="34" height="34" rx="17" fill="white"/>
<path fill-rule="evenodd" clip-rule="evenodd" d="M26.0364 12.9413C25.8676 12.7725 25.6387 12.6778 25.4001 12.6778C25.1614 12.6778 24.9326 12.7725 24.7638 12.9413L24.33 13.3751L25.6251 14.6711L26.0589 14.2364C26.2276 14.0676 26.3224 13.8387 26.3224 13.6001C26.3224 13.3614 26.2276 13.1325 26.0589 12.9638L26.0364 12.9413ZM24.6711 15.6251L23.3751 14.3291L18.8139 18.8912L18.426 20.5751L20.109 20.1872L24.6711 15.6251ZM23.8098 11.9864C24.0187 11.7774 24.2668 11.6116 24.5398 11.4985C24.8128 11.3854 25.1055 11.3271 25.401 11.3271C25.6965 11.3271 25.9892 11.3854 26.2622 11.4985C26.5352 11.6116 26.7833 11.7774 26.9922 11.9864L27.0147 12.0089C27.2237 12.2178 27.3895 12.4659 27.5026 12.7389C27.6157 13.0119 27.6739 13.3045 27.6739 13.6001C27.6739 13.8956 27.6157 14.1882 27.5026 14.4612C27.3895 14.7343 27.2237 14.9823 27.0147 15.1913L20.9271 21.2771C20.8378 21.3663 20.7252 21.4286 20.6022 21.4571L17.6772 22.1321C17.5657 22.1579 17.4494 22.1549 17.3393 22.1234C17.2292 22.0919 17.129 22.0329 17.0479 21.952C16.9669 21.8711 16.9078 21.7709 16.8762 21.6609C16.8446 21.5508 16.8415 21.4345 16.8672 21.323L17.5422 18.398C17.5706 18.275 17.633 18.1624 17.7222 18.0731L23.8098 11.9864ZM15.7251 13.6001C15.188 13.6001 14.673 13.8134 14.2932 14.1932C13.9134 14.5729 13.7001 15.088 13.7001 15.6251V23.2751C13.7001 23.8121 13.9134 24.3272 14.2932 24.707C14.673 25.0867 15.188 25.3001 15.7251 25.3001H23.3751C23.9122 25.3001 24.4272 25.0867 24.807 24.707C25.1867 24.3272 25.4001 23.8121 25.4001 23.2751V19.2251C25.4001 19.046 25.4712 18.8744 25.5978 18.7478C25.7244 18.6212 25.8961 18.5501 26.0751 18.5501C26.2541 18.5501 26.4258 18.6212 26.5524 18.7478C26.679 18.8744 26.7501 19.046 26.7501 19.2251V23.2751C26.7501 23.7183 26.6628 24.1571 26.4932 24.5666C26.3236 24.9761 26.075 25.3482 25.7616 25.6616C25.4482 25.975 25.0761 26.2236 24.6667 26.3932C24.2572 26.5628 23.8183 26.6501 23.3751 26.6501H15.7251C15.2819 26.6501 14.843 26.5628 14.4335 26.3932C14.0241 26.2236 13.652 25.975 13.3386 25.6616C13.0252 25.3482 12.7766 24.9761 12.607 24.5666C12.4374 24.1571 12.3501 23.7183 12.3501 23.2751V15.6251C12.3501 14.73 12.7057 13.8715 13.3386 13.2386C13.9715 12.6056 14.83 12.2501 15.7251 12.2501H19.7751C19.9541 12.2501 20.1258 12.3212 20.2524 12.4478C20.379 12.5744 20.4501 12.746 20.4501 12.9251C20.4501 13.1041 20.379 13.2758 20.2524 13.4024C20.1258 13.529 19.9541 13.6001 19.7751 13.6001H15.7251Z" fill="#3F0E40"/>
</g>
<defs>
<filter id="filter0_d_361_3243" x="0" y="0" width="40" height="40" filterUnits="userSpaceOnUse" color-interpolation-filters="sRGB">
<feFlood flood-opacity="0" result="BackgroundImageFix"/>
<feColorMatrix in="SourceAlpha" type="matrix" values="0 0 0 0 0 0 0 0 0 0 0 0 0 0 0 0 0 0 127 0" result="hardAlpha"/>
<feOffset dy="1"/>
<feGaussianBlur stdDeviation="1.5"/>
<feComposite in2="hardAlpha" operator="out"/>
<feColorMatrix type="matrix" values="0 0 0 0 0 0 0 0 0 0 0 0 0 0 0 0 0 0 0.08 0"/>
<feBlend mode="normal" in2="BackgroundImageFix" result="effect1_dropShadow_361_3243"/>
<feBlend mode="normal" in="SourceGraphic" in2="effect1_dropShadow_361_3243" result="shape"/>
</filter>
</defs>
</svg>
