<svg width="18" height="18" viewBox="0 0 18 18" fill="none" xmlns="http://www.w3.org/2000/svg">
<g clip-path="url(#clip0_343_1272)">
<path fill-rule="evenodd" clip-rule="evenodd" d="M0.899902 4.2749C0.899902 3.3798 1.25548 2.52135 1.88842 1.88842C2.52135 1.25548 3.3798 0.899902 4.2749 0.899902H9.2249C10.12 0.899902 10.9785 1.25548 11.6114 1.88842C12.2443 2.52135 12.5999 3.3798 12.5999 4.2749V6.5249H13.7249C14.62 6.5249 15.4785 6.88048 16.1114 7.51342C16.7443 8.14635 17.0999 9.0048 17.0999 9.8999V15.5249C17.0999 15.9426 16.934 16.3432 16.6386 16.6386C16.3432 16.934 15.9426 17.0999 15.5249 17.0999H2.4749C2.05719 17.0999 1.65658 16.934 1.36121 16.6386C1.06584 16.3432 0.899902 15.9426 0.899902 15.5249V4.2749ZM12.5999 15.7499V7.8749H13.7249C14.262 7.8749 14.777 8.08825 15.1568 8.46801C15.5366 8.84777 15.7499 9.36284 15.7499 9.8999V15.5249C15.7499 15.5846 15.7262 15.6418 15.684 15.684C15.6418 15.7262 15.5846 15.7499 15.5249 15.7499H12.5999ZM4.2749 2.2499C3.73784 2.2499 3.22277 2.46325 2.84301 2.84301C2.46325 3.22277 2.2499 3.73784 2.2499 4.2749V15.5249C2.2499 15.6491 2.3507 15.7499 2.4749 15.7499H4.0499V14.1749C4.0499 13.3055 4.7555 12.5999 5.6249 12.5999H7.8749C8.7443 12.5999 9.4499 13.3055 9.4499 14.1749V15.7499H11.2499V4.2749C11.2499 3.73784 11.0366 3.22277 10.6568 2.84301C10.277 2.46325 9.76197 2.2499 9.2249 2.2499H4.2749ZM8.0999 15.7499V14.1749C8.0999 14.1152 8.0762 14.058 8.034 14.0158C7.99181 13.9736 7.93458 13.9499 7.8749 13.9499H5.6249C5.56523 13.9499 5.508 13.9736 5.4658 14.0158C5.42361 14.058 5.3999 14.1152 5.3999 14.1749V15.7499H8.0999ZM6.2999 7.6499C6.2999 7.8886 6.20508 8.11752 6.0363 8.2863C5.86752 8.45508 5.6386 8.5499 5.3999 8.5499C5.16121 8.5499 4.93229 8.45508 4.76351 8.2863C4.59472 8.11752 4.4999 7.8886 4.4999 7.6499C4.4999 7.41121 4.59472 7.18229 4.76351 7.01351C4.93229 6.84472 5.16121 6.7499 5.3999 6.7499C5.6386 6.7499 5.86752 6.84472 6.0363 7.01351C6.20508 7.18229 6.2999 7.41121 6.2999 7.6499ZM5.3999 5.8499C5.6386 5.8499 5.86752 5.75508 6.0363 5.5863C6.20508 5.41752 6.2999 5.1886 6.2999 4.9499C6.2999 4.71121 6.20508 4.48229 6.0363 4.31351C5.86752 4.14472 5.6386 4.0499 5.3999 4.0499C5.16121 4.0499 4.93229 4.14472 4.76351 4.31351C4.59472 4.48229 4.4999 4.71121 4.4999 4.9499C4.4999 5.1886 4.59472 5.41752 4.76351 5.5863C4.93229 5.75508 5.16121 5.8499 5.3999 5.8499ZM8.9999 4.9499C8.9999 5.1886 8.90508 5.41752 8.7363 5.5863C8.56752 5.75508 8.3386 5.8499 8.0999 5.8499C7.86121 5.8499 7.63229 5.75508 7.46351 5.5863C7.29472 5.41752 7.1999 5.1886 7.1999 4.9499C7.1999 4.71121 7.29472 4.48229 7.46351 4.31351C7.63229 4.14472 7.86121 4.0499 8.0999 4.0499C8.3386 4.0499 8.56752 4.14472 8.7363 4.31351C8.90508 4.48229 8.9999 4.71121 8.9999 4.9499ZM8.0999 8.5499C8.3386 8.5499 8.56752 8.45508 8.7363 8.2863C8.90508 8.11752 8.9999 7.8886 8.9999 7.6499C8.9999 7.41121 8.90508 7.18229 8.7363 7.01351C8.56752 6.84472 8.3386 6.7499 8.0999 6.7499C7.86121 6.7499 7.63229 6.84472 7.46351 7.01351C7.29472 7.18229 7.1999 7.41121 7.1999 7.6499C7.1999 7.8886 7.29472 8.11752 7.46351 8.2863C7.63229 8.45508 7.86121 8.5499 8.0999 8.5499ZM8.9999 10.3499C8.9999 10.5886 8.90508 10.8175 8.7363 10.9863C8.56752 11.1551 8.3386 11.2499 8.0999 11.2499C7.86121 11.2499 7.63229 11.1551 7.46351 10.9863C7.29472 10.8175 7.1999 10.5886 7.1999 10.3499C7.1999 10.1112 7.29472 9.88229 7.46351 9.71351C7.63229 9.54472 7.86121 9.4499 8.0999 9.4499C8.3386 9.4499 8.56752 9.54472 8.7363 9.71351C8.90508 9.88229 8.9999 10.1112 8.9999 10.3499ZM5.3999 11.2499C5.6386 11.2499 5.86752 11.1551 6.0363 10.9863C6.20508 10.8175 6.2999 10.5886 6.2999 10.3499C6.2999 10.1112 6.20508 9.88229 6.0363 9.71351C5.86752 9.54472 5.6386 9.4499 5.3999 9.4499C5.16121 9.4499 4.93229 9.54472 4.76351 9.71351C4.59472 9.88229 4.4999 10.1112 4.4999 10.3499C4.4999 10.5886 4.59472 10.8175 4.76351 10.9863C4.93229 11.1551 5.16121 11.2499 5.3999 11.2499Z" fill="white" fill-opacity="0.7"/>
</g>
<defs>
<clipPath id="clip0_343_1272">
<rect width="18" height="18" fill="white"/>
</clipPath>
</defs>
</svg>
